<?xml version="1.0" standalone="no"?><!DOCTYPE svg PUBLIC "-//W3C//DTD SVG 1.1//EN" "http://www.w3.org/Graphics/SVG/1.1/DTD/svg11.dtd"><svg t="1717244450571" class="icon" viewBox="0 0 1024 1024" version="1.1" xmlns="http://www.w3.org/2000/svg" p-id="8317" xmlns:xlink="http://www.w3.org/1999/xlink" width="24" height="24"><path d="M577.641026 91.897436 577.641026 590.769231 433.230769 590.769231 433.230769 91.897436 577.641026 91.897436ZM341.333333 610.571054C341.333333 650.318585 373.656418 682.666667 413.474002 682.666667L597.397793 682.666667C637.229686 682.666667 669.538462 650.406676 669.538462 610.571054L669.538462 72.095613C669.538462 32.348081 637.215376 0 597.397793 0L413.474002 0C373.642109 0 341.333333 32.259991 341.333333 72.095613L341.333333 610.571054ZM760.62615 617.003113C760.348488 682.270116 707.346905 735.179487 641.89335 735.179487L380.794092 735.179487C315.497551 735.179487 262.564103 682.319623 262.564103 617.003113L262.564103 426.666667C262.564103 401.289886 241.992205 380.717949 216.615385 380.717949 191.238564 380.717949 170.666667 401.289886 170.666667 426.666667L170.666667 643.278494C170.666667 744.787561 253.012152 827.076923 354.506831 827.076923L669.493169 827.076923C771.025264 827.076923 853.333333 744.839562 853.333333 643.278494L853.333333 426.666667C853.333333 401.289886 832.761436 380.717949 807.384615 380.717949 782.007795 380.717949 761.435897 401.289886 761.435897 426.666667L760.62615 617.003113ZM479.179487 925.538462 249.360279 925.538462C224.016673 925.538462 203.487179 946.110398 203.487179 971.487179 203.487179 996.812314 224.025206 1017.435897 249.360279 1017.435897L774.639721 1017.435897C799.983327 1017.435897 820.512821 996.863961 820.512821 971.487179 820.512821 946.162045 799.974794 925.538462 774.639721 925.538462L571.076923 925.538462 571.076923 892.685325C571.076923 867.282051 550.505026 846.769231 525.128205 846.769231 499.80311 846.769231 479.179487 867.326569 479.179487 892.685325L479.179487 925.538462Z" fill="#2c2c2c" p-id="8318"></path></svg>